<svg xmlns="http://www.w3.org/2000/svg" viewBox="0 0 640 480">
  <rect width="640" height="480" fill="#06101f"/><circle cx="470" cy="150" r="105" fill="#0ea5e9" opacity=".2"/><rect x="110" y="205" width="420" height="95" rx="12" fill="#0b1220" stroke="#38bdf8" stroke-width="8"/>
  <g fill="#0ea5e9"><rect x="150" y="225" width="42" height="42" rx="7"/><rect x="210" y="225" width="42" height="42" rx="7"/><rect x="270" y="225" width="42" height="42" rx="7"/><rect x="330" y="225" width="42" height="42" rx="7"/><rect x="390" y="225" width="42" height="42" rx="7"/></g><path d="M145 307v25M185 307v25M225 307v25M265 307v25M305 307v25M345 307v25M385 307v25M425 307v25M465 307v25" stroke="#e5f6ff" stroke-width="8"/>
</svg>
