<svg xmlns="http://www.w3.org/2000/svg" viewBox="0 0 640 480">
  <rect width="640" height="480" fill="#06101f"/><circle cx="170" cy="125" r="100" fill="#0ea5e9" opacity=".22"/><rect x="98" y="170" width="444" height="170" rx="22" fill="#0b1220" stroke="#38bdf8" stroke-width="8"/>
  <g fill="#0ea5e9" opacity=".9"><rect x="130" y="205" width="42" height="28" rx="6"/><rect x="184" y="205" width="42" height="28" rx="6"/><rect x="238" y="205" width="42" height="28" rx="6"/><rect x="292" y="205" width="42" height="28" rx="6"/><rect x="346" y="205" width="42" height="28" rx="6"/><rect x="400" y="205" width="42" height="28" rx="6"/><rect x="454" y="205" width="42" height="28" rx="6"/><rect x="140" y="248" width="42" height="28" rx="6"/><rect x="194" y="248" width="42" height="28" rx="6"/><rect x="248" y="248" width="42" height="28" rx="6"/><rect x="302" y="248" width="42" height="28" rx="6"/><rect x="356" y="248" width="42" height="28" rx="6"/><rect x="410" y="248" width="74" height="28" rx="6"/><rect x="180" y="292" width="250" height="28" rx="7"/></g>
  <path d="M110 342h420" stroke="#67e8f9" stroke-width="8" opacity=".65"/>
</svg>
